<svg viewBox="0 0 430 280" fill="none" xmlns="http://www.w3.org/2000/svg"><path d="M0 6a6 6 0 016-6h418a6 6 0 016 6v268a6 6 0 01-6 6H6a6 6 0 01-6-6V6z" fill="#F4F5F9"></path><g filter="url(#filter0_d_29_93520)"><rect x="77" y="50" width="279" height="179" rx="6" fill="#fff"></rect><path d="M95.64 80h-2.306l3.515-10.182h2.774L103.133 80h-2.307l-2.55-7.855h-.08L95.641 80zm-.143-4.002h5.448v1.68h-5.448v-1.68zM106.777 80.124c-.58 0-1.105-.149-1.576-.447-.467-.302-.838-.744-1.113-1.328-.272-.586-.408-1.306-.408-2.157 0-.875.141-1.603.422-2.183.282-.583.657-1.019 1.124-1.307a2.88 2.88 0 011.546-.438c.428 0 .784.073 1.069.219.288.142.52.321.696.537.179.212.315.42.408.626h.064v-3.828h2.113V80h-2.088v-1.223h-.089a2.76 2.76 0 01-.423.631 2.094 2.094 0 01-.701.512c-.285.136-.633.204-1.044.204zm.671-1.685c.342 0 .63-.093.865-.279.239-.188.421-.452.547-.79.13-.338.194-.734.194-1.188 0-.454-.063-.849-.189-1.183-.126-.335-.308-.594-.547-.776a1.389 1.389 0 00-.87-.273c-.348 0-.641.094-.88.283a1.74 1.74 0 00-.542.785 3.39 3.39 0 00-.183 1.164c0 .444.061.837.183 1.178.126.338.307.603.542.796.239.188.532.283.88.283zM115.678 80.124c-.58 0-1.106-.149-1.576-.447-.468-.302-.839-.744-1.114-1.328-.272-.586-.408-1.306-.408-2.157 0-.875.141-1.603.423-2.183.282-.583.656-1.019 1.123-1.307a2.881 2.881 0 011.547-.438c.427 0 .783.073 1.068.219.289.142.521.321.697.537.178.212.314.42.407.626h.065v-3.828h2.113V80h-2.088v-1.223h-.09c-.099.212-.24.422-.422.631a2.104 2.104 0 01-.701.512c-.285.136-.633.204-1.044.204zm.671-1.685c.341 0 .629-.093.865-.279a1.77 1.77 0 00.547-.79c.129-.338.194-.734.194-1.188 0-.454-.063-.849-.189-1.183-.126-.335-.309-.594-.547-.776a1.393 1.393 0 00-.87-.273c-.348 0-.642.094-.88.283-.239.189-.42.45-.542.785a3.366 3.366 0 00-.184 1.164c0 .444.061.837.184 1.178.126.338.306.603.542.796.238.188.532.283.88.283zM129.066 72.364v1.59h-4.599v-1.59h4.599zm-3.555-1.83h2.118v7.12c0 .195.03.347.09.457a.49.49 0 00.248.224c.11.043.236.064.378.064.1 0 .199-.008.298-.025.1-.02.176-.035.229-.044l.333 1.576a5.992 5.992 0 01-.447.114 3.583 3.583 0 01-.701.084c-.511.02-.958-.048-1.343-.204a1.871 1.871 0 01-.889-.725c-.213-.328-.317-.743-.314-1.243v-7.398zM133.814 80.15c-.772 0-1.44-.165-2.004-.493a3.368 3.368 0 01-1.297-1.382c-.305-.594-.458-1.281-.458-2.063 0-.79.153-1.479.458-2.069a3.328 3.328 0 011.297-1.382c.564-.331 1.232-.497 2.004-.497s1.438.166 1.998.497c.564.328.998.79 1.303 1.382.305.59.457 1.28.457 2.069 0 .782-.152 1.47-.457 2.063a3.356 3.356 0 01-1.303 1.382c-.56.328-1.226.492-1.998.492zm.01-1.642c.351 0 .645-.099.88-.298.235-.202.412-.477.532-.825a3.58 3.58 0 00.184-1.188c0-.445-.062-.84-.184-1.189-.12-.348-.297-.623-.532-.825-.235-.202-.529-.303-.88-.303-.355 0-.653.101-.895.303-.239.202-.419.477-.542.825a3.662 3.662 0 00-.179 1.189c0 .444.06.84.179 1.188.123.348.303.623.542.825.242.199.54.299.895.299zM142.23 80V69.818h2.152v4.49h.135l3.664-4.49h2.58l-3.779 4.56L150.806 80h-2.576l-2.789-4.186-1.059 1.293V80h-2.152zM154.762 80.15c-.786 0-1.462-.16-2.029-.478a3.27 3.27 0 01-1.302-1.362c-.305-.59-.458-1.288-.458-2.093 0-.786.153-1.475.458-2.069a3.383 3.383 0 011.287-1.387c.557-.331 1.21-.497 1.959-.497.504 0 .973.081 1.407.244.438.159.819.4 1.144.72.328.322.583.727.765 1.214.183.484.274 1.05.274 1.7v.582h-6.448V75.41h4.454c0-.305-.066-.575-.199-.81a1.417 1.417 0 00-.552-.552 1.573 1.573 0 00-.81-.204 1.63 1.63 0 00-.855.224 1.57 1.57 0 00-.577.591 1.68 1.68 0 00-.214.82v1.249c0 .377.07.704.209.979.143.275.343.487.602.636.258.15.565.224.92.224.235 0 .45-.033.646-.1.195-.066.363-.165.502-.298a1.3 1.3 0 00.318-.487l1.959.13c-.099.47-.303.881-.612 1.232-.304.348-.699.62-1.183.816-.48.192-1.036.288-1.665.288zM160.751 82.864c-.268 0-.52-.022-.755-.065a2.741 2.741 0 01-.577-.154l.477-1.581c.249.076.472.118.671.124a.852.852 0 00.522-.14c.149-.099.27-.267.363-.506l.125-.323-2.74-7.855h2.227l1.581 5.608h.08l1.596-5.608h2.242l-2.968 8.461a3.548 3.548 0 01-.582 1.074 2.384 2.384 0 01-.919.711c-.372.17-.819.254-1.343.254zM169.153 80l-2.078-7.636h2.143l1.183 5.13h.07l1.233-5.13h2.103l1.252 5.1h.065l1.163-5.1h2.138L176.352 80h-2.242l-1.313-4.803h-.094L171.39 80h-2.237zM182.814 80.15c-.772 0-1.44-.165-2.004-.493a3.368 3.368 0 01-1.297-1.382c-.305-.594-.458-1.281-.458-2.063 0-.79.153-1.479.458-2.069a3.328 3.328 0 011.297-1.382c.564-.331 1.232-.497 2.004-.497s1.438.166 1.998.497c.564.328.998.79 1.303 1.382.305.59.457 1.28.457 2.069 0 .782-.152 1.47-.457 2.063a3.356 3.356 0 01-1.303 1.382c-.56.328-1.226.492-1.998.492zm.01-1.642c.351 0 .645-.099.88-.298.235-.202.412-.477.532-.825a3.58 3.58 0 00.184-1.188c0-.445-.062-.84-.184-1.189-.12-.348-.297-.623-.532-.825-.235-.202-.529-.303-.88-.303-.355 0-.653.101-.895.303-.239.202-.419.477-.542.825a3.662 3.662 0 00-.179 1.189c0 .444.06.84.179 1.188.123.348.303.623.542.825.242.199.54.299.895.299zM187.95 80v-7.636h2.053v1.332h.079c.14-.474.373-.832.701-1.074a1.845 1.845 0 011.134-.368 3.198 3.198 0 01.666.075v1.879a2.758 2.758 0 00-.413-.08 3.693 3.693 0 00-.482-.034c-.311 0-.59.068-.835.204a1.505 1.505 0 00-.577.556 1.61 1.61 0 00-.209.826V80h-2.117zM196.137 80.124c-.58 0-1.106-.149-1.576-.447-.468-.302-.839-.744-1.114-1.328-.272-.586-.408-1.306-.408-2.157 0-.875.141-1.603.423-2.183.282-.583.656-1.019 1.123-1.307a2.881 2.881 0 011.547-.438c.427 0 .783.073 1.068.219.289.142.521.321.696.537.179.212.315.42.408.626h.065v-3.828h2.113V80h-2.088v-1.223h-.09c-.099.212-.24.422-.422.631a2.104 2.104 0 01-.701.512c-.285.136-.633.204-1.044.204zm.671-1.685c.341 0 .629-.093.865-.279a1.77 1.77 0 00.547-.79c.129-.338.194-.734.194-1.188 0-.454-.063-.849-.189-1.183-.126-.335-.309-.594-.547-.776a1.393 1.393 0 00-.87-.273c-.348 0-.642.094-.88.283-.239.189-.42.45-.542.785a3.366 3.366 0 00-.184 1.164c0 .444.061.837.184 1.178.126.338.306.603.542.796.238.188.532.283.88.283zM205.503 69.818h2.655l2.804 6.841h.119l2.804-6.84h2.655v10.18h-2.088v-6.626h-.085l-2.635 6.577h-1.421l-2.635-6.602h-.085V80h-2.088V69.818zM220.451 80.144a3.18 3.18 0 01-1.302-.253 2.098 2.098 0 01-.905-.761c-.219-.338-.328-.76-.328-1.263 0-.424.078-.78.233-1.069.156-.288.368-.52.637-.696.268-.175.573-.308.915-.398.344-.089.706-.152 1.083-.188.445-.047.803-.09 1.074-.13.272-.043.469-.106.592-.189a.414.414 0 00.184-.368v-.03c0-.314-.1-.558-.298-.73-.196-.172-.474-.259-.836-.259-.381 0-.684.085-.909.254a1.165 1.165 0 00-.448.626l-1.959-.159c.1-.464.295-.865.587-1.203a2.82 2.82 0 011.128-.785c.465-.186 1.001-.279 1.611-.279.425 0 .831.05 1.218.15.391.099.738.253 1.039.462.305.209.546.477.721.805.176.325.264.714.264 1.168V80h-2.009v-1.058h-.059c-.123.239-.287.45-.493.631-.205.18-.452.32-.74.423-.289.1-.622.15-1 .15zm.607-1.462c.311 0 .587-.06.825-.183a1.46 1.46 0 00.562-.508c.136-.212.204-.452.204-.72v-.81a1.14 1.14 0 01-.274.118 4.95 4.95 0 01-.382.095c-.143.026-.285.051-.428.075l-.388.054a2.633 2.633 0 00-.651.174c-.186.08-.33.188-.433.323a.792.792 0 00-.154.498c0 .288.105.508.313.66.213.15.481.225.806.225zM228.513 75.585V80h-2.118v-7.636h2.018v1.347h.09c.169-.444.452-.796.85-1.054.398-.262.88-.393 1.447-.393.53 0 .992.116 1.387.348.394.232.701.564.92.995.218.427.328.937.328 1.53V80h-2.118v-4.484c.003-.468-.116-.832-.358-1.094-.242-.265-.575-.398-.999-.398-.286 0-.537.061-.756.184a1.275 1.275 0 00-.507.537c-.12.232-.181.512-.184.84zM237.281 80.144a3.18 3.18 0 01-1.302-.253 2.098 2.098 0 01-.905-.761c-.219-.338-.328-.76-.328-1.263 0-.424.078-.78.234-1.069a1.88 1.88 0 01.636-.696c.268-.175.573-.308.915-.398a6.95 6.95 0 011.084-.188c.444-.047.802-.09 1.073-.13.272-.043.469-.106.592-.189a.414.414 0 00.184-.368v-.03c0-.314-.099-.558-.298-.73-.196-.172-.474-.259-.836-.259-.381 0-.684.085-.909.254a1.165 1.165 0 00-.448.626l-1.959-.159c.1-.464.295-.865.587-1.203a2.817 2.817 0 011.129-.785c.464-.186 1.001-.279 1.61-.279.425 0 .831.05 1.218.15.392.099.738.253 1.039.462.305.209.546.477.721.805.176.325.264.714.264 1.168V80h-2.009v-1.058h-.059c-.123.239-.287.45-.493.631-.205.18-.452.32-.74.423-.289.1-.622.15-1 .15zm.607-1.462c.312 0 .587-.06.825-.183a1.46 1.46 0 00.562-.508c.136-.212.204-.452.204-.72v-.81a1.14 1.14 0 01-.274.118 4.95 4.95 0 01-.382.095c-.143.026-.285.051-.428.075l-.388.054a2.633 2.633 0 00-.651.174c-.186.08-.33.188-.433.323a.792.792 0 00-.154.498c0 .288.105.508.314.66.212.15.48.225.805.225zM246.665 83.023c-.686 0-1.274-.095-1.765-.284-.487-.185-.875-.439-1.163-.76a2.34 2.34 0 01-.562-1.084l1.959-.264c.06.153.154.295.283.428.13.133.3.239.513.318.215.083.477.124.785.124.461 0 .84-.112 1.139-.338.301-.222.452-.595.452-1.118v-1.397h-.09a2.006 2.006 0 01-.417.601 2.106 2.106 0 01-.716.463c-.292.119-.64.179-1.044.179a3.131 3.131 0 01-1.566-.398c-.468-.269-.84-.678-1.119-1.228-.275-.554-.412-1.253-.412-2.098 0-.865.14-1.588.422-2.168.282-.58.656-1.014 1.124-1.302.47-.289.986-.433 1.546-.433.427 0 .785.073 1.074.219.288.142.52.321.696.537.179.212.316.42.412.626h.08v-1.282h2.103v7.71c0 .65-.159 1.194-.477 1.631-.318.438-.759.766-1.323.985-.56.222-1.205.333-1.934.333zm.045-4.723c.341 0 .63-.085.865-.254.239-.172.421-.418.547-.736.129-.321.194-.706.194-1.153 0-.447-.063-.835-.189-1.163-.126-.332-.308-.589-.547-.771a1.393 1.393 0 00-.87-.273c-.348 0-.641.094-.88.283a1.701 1.701 0 00-.542.775 3.314 3.314 0 00-.184 1.149c0 .44.062.822.184 1.143.126.319.307.566.542.741.239.172.532.259.88.259zM255.564 80.15c-.785 0-1.461-.16-2.028-.478a3.273 3.273 0 01-1.303-1.362c-.304-.59-.457-1.288-.457-2.093 0-.786.153-1.475.457-2.069a3.385 3.385 0 011.288-1.387c.557-.331 1.21-.497 1.959-.497.504 0 .973.081 1.407.244.437.159.819.4 1.143.72.328.322.584.727.766 1.214.182.484.273 1.05.273 1.7v.582h-6.448V75.41h4.455c0-.305-.066-.575-.199-.81a1.43 1.43 0 00-.552-.552 1.573 1.573 0 00-.81-.204c-.322 0-.607.075-.855.224a1.563 1.563 0 00-.577.591 1.67 1.67 0 00-.214.82v1.249c0 .377.07.704.209.979.142.275.343.487.602.636.258.15.565.224.919.224.236 0 .451-.033.647-.1.195-.066.362-.165.502-.298a1.3 1.3 0 00.318-.487l1.959.13c-.1.47-.304.881-.612 1.232-.305.348-.699.62-1.183.816-.481.192-1.036.288-1.666.288zM260.452 80v-7.636h2.053v1.332h.079c.14-.474.373-.832.701-1.074a1.843 1.843 0 011.134-.368 3.198 3.198 0 01.666.075v1.879a2.758 2.758 0 00-.413-.08 3.693 3.693 0 00-.482-.034c-.311 0-.59.068-.835.204a1.505 1.505 0 00-.577.556 1.61 1.61 0 00-.209.826V80h-2.117z" fill="#191B23"></path><path d="M78 99h277v1H78v-1z" fill="#C4C7CF"></path><path d="M86 124c0-7.732 6.268-14 14-14s14 6.268 14 14-6.268 14-14 14-14-6.268-14-14z" fill="#DBFEE8"></path><path d="M99 127a1 1 0 002 0v-2h2a1 1 0 000-2h-2v-2a1 1 0 00-2 0v2h-2a1 1 0 000 2h2v2z" fill="#009F81"></path><path fill-rule="evenodd" clip-rule="evenodd" d="M100 132a8 8 0 100-16 8 8 0 000 16zm0-2a6 6 0 100-12 6 6 0 000 12z" fill="#009F81"></path><path d="M123.232 129v-10.182h1.233v5.051h.12l4.574-5.051h1.61l-4.275 4.594 4.275 5.588h-1.491l-3.54-4.733-1.273 1.432V129h-1.233zM134.847 129.159c-.735 0-1.37-.162-1.904-.487a3.28 3.28 0 01-1.228-1.372c-.285-.59-.427-1.276-.427-2.059 0-.782.142-1.471.427-2.068.289-.6.69-1.067 1.203-1.402.517-.338 1.121-.507 1.81-.507.398 0 .79.066 1.178.199.388.133.741.348 1.059.646.318.295.572.686.761 1.174.189.487.283 1.087.283 1.799v.498h-5.886v-1.015h4.693c0-.431-.086-.815-.258-1.153a1.95 1.95 0 00-.726-.8c-.312-.196-.68-.294-1.104-.294-.467 0-.872.116-1.213.348a2.298 2.298 0 00-.781.895 2.632 2.632 0 00-.273 1.183v.676c0 .577.099 1.066.298 1.467.202.398.482.701.84.91.358.205.774.308 1.248.308.309 0 .587-.043.836-.129.251-.09.469-.222.651-.398.182-.179.323-.401.422-.666l1.134.318c-.119.385-.32.723-.602 1.014a2.905 2.905 0 01-1.044.676c-.414.16-.88.239-1.397.239zM140.317 131.864a2.58 2.58 0 01-.532-.05 1.413 1.413 0 01-.323-.09l.298-1.034c.286.073.537.1.756.08a.909.909 0 00.582-.293c.172-.173.33-.453.472-.841l.219-.596-2.824-7.676h1.273l2.108 6.085h.079l2.108-6.085h1.273l-3.242 8.75a3.296 3.296 0 01-.541.979 2.036 2.036 0 01-.751.582c-.282.126-.6.189-.955.189zM149.085 129l-2.327-7.636h1.233l1.651 5.846h.079l1.631-5.846h1.253l1.61 5.826h.08l1.65-5.826h1.233L154.852 129h-1.154l-1.67-5.866h-.119L150.238 129h-1.153zM161.572 129.159c-.689 0-1.294-.164-1.815-.492a3.345 3.345 0 01-1.213-1.377c-.288-.59-.432-1.28-.432-2.068 0-.796.144-1.49.432-2.084a3.347 3.347 0 011.213-1.382c.521-.328 1.126-.492 1.815-.492.689 0 1.293.164 1.81.492.52.329.924.789 1.213 1.382.291.594.437 1.288.437 2.084 0 .788-.146 1.478-.437 2.068a3.303 3.303 0 01-1.213 1.377c-.517.328-1.121.492-1.81.492zm0-1.054c.524 0 .955-.134 1.293-.403.338-.268.588-.621.75-1.059.163-.437.244-.911.244-1.421 0-.511-.081-.986-.244-1.427a2.401 2.401 0 00-.75-1.069c-.338-.272-.769-.408-1.293-.408-.524 0-.954.136-1.293.408a2.401 2.401 0 00-.75 1.069 4.081 4.081 0 00-.244 1.427c0 .51.081.984.244 1.421.162.438.412.791.75 1.059.339.269.769.403 1.293.403zM166.823 129v-7.636h1.134v1.153h.079a1.84 1.84 0 01.756-.92 2.229 2.229 0 011.233-.353c.086 0 .194.002.323.005.129.004.227.009.294.015v1.193a3.667 3.667 0 00-.274-.044 2.605 2.605 0 00-.442-.035c-.372 0-.703.078-.995.234a1.711 1.711 0 00-.934 1.556V129h-1.174zM174.683 129.159c-.636 0-1.198-.161-1.685-.482-.487-.325-.868-.782-1.143-1.372-.276-.594-.413-1.295-.413-2.103 0-.802.137-1.498.413-2.088.275-.59.657-1.046 1.148-1.368.491-.321 1.057-.482 1.7-.482.497 0 .89.083 1.179.249.291.162.513.348.666.557.156.205.277.374.363.507h.099v-3.759h1.173V129h-1.133v-1.173h-.139a7.523 7.523 0 01-.368.527 2.182 2.182 0 01-.681.561c-.295.163-.688.244-1.179.244zm.16-1.054c.47 0 .868-.123 1.193-.368.324-.248.571-.591.74-1.029.169-.441.254-.949.254-1.526 0-.57-.083-1.069-.249-1.497-.165-.431-.411-.765-.735-1.004-.325-.242-.726-.363-1.203-.363-.498 0-.912.128-1.243.383-.329.252-.575.595-.741 1.029a4.08 4.08 0 00-.244 1.452c0 .543.083 1.037.249 1.481.169.441.417.792.746 1.054.331.259.742.388 1.233.388zM185.606 118.818V129h-1.173v-10.182h1.173zM187.755 129v-7.636h1.173V129h-1.173zm.597-8.909a.834.834 0 01-.592-.234.753.753 0 01-.244-.562.75.75 0 01.244-.561.834.834 0 01.592-.234c.228 0 .424.078.586.234a.741.741 0 01.249.561.744.744 0 01-.249.562.815.815 0 01-.586.234zM196.486 123.074l-1.054.298a1.954 1.954 0 00-.293-.512 1.43 1.43 0 00-.517-.418c-.219-.109-.499-.164-.84-.164-.468 0-.857.108-1.169.324-.308.212-.462.482-.462.81 0 .292.106.522.318.691.212.169.544.31.995.423l1.133.278c.683.166 1.192.419 1.526.761.335.338.503.774.503 1.307 0 .438-.126.829-.378 1.173-.249.345-.597.617-1.044.816-.448.199-.968.298-1.561.298-.779 0-1.424-.169-1.934-.507-.511-.338-.834-.832-.97-1.482l1.114-.278c.106.411.306.719.601.925.299.205.688.308 1.169.308.547 0 .981-.116 1.302-.348.325-.235.487-.517.487-.845a.886.886 0 00-.278-.666c-.186-.183-.471-.319-.855-.408l-1.273-.298c-.699-.166-1.213-.423-1.541-.771-.325-.351-.487-.79-.487-1.317 0-.431.121-.812.363-1.144a2.47 2.47 0 01.999-.78 3.508 3.508 0 011.442-.284c.755 0 1.349.166 1.78.497.434.332.742.769.924 1.313zM201.713 121.364v.994h-3.958v-.994h3.958zm-2.804-1.83h1.173v7.278c0 .332.048.581.144.746.1.163.226.272.378.328.156.053.32.08.492.08.129 0 .236-.007.318-.02l.199-.04.239 1.054a2.469 2.469 0 01-.875.139c-.332 0-.656-.071-.975-.213a1.944 1.944 0 01-.785-.652c-.206-.291-.308-.659-.308-1.103v-7.597z" fill="#191B23"></path><rect x="279.5" y="114.5" width="67" height="19" rx="9.5" fill="#fff"></rect><path d="M290.292 119.273V128h-1.321v-7.406h-.051l-2.088 1.363v-1.261l2.178-1.423h1.282zM296.864 128.145c-.673-.003-1.248-.181-1.726-.533-.477-.352-.842-.865-1.095-1.538s-.379-1.485-.379-2.433c0-.946.126-1.755.379-2.425.256-.671.622-1.182 1.1-1.534.48-.352 1.054-.529 1.721-.529.668 0 1.24.178 1.718.533.477.352.842.864 1.095 1.534.256.668.383 1.475.383 2.421 0 .951-.126 1.764-.379 2.437-.253.671-.618 1.183-1.095 1.538-.477.353-1.051.529-1.722.529zm0-1.138c.591 0 1.053-.288 1.385-.865.336-.577.503-1.41.503-2.501 0-.725-.077-1.337-.23-1.837-.151-.503-.368-.884-.652-1.142a1.427 1.427 0 00-1.006-.392c-.588 0-1.049.29-1.385.869-.335.58-.504 1.414-.507 2.502 0 .727.076 1.342.226 1.845.154.5.371.879.652 1.138.281.255.619.383 1.014.383zM305 118.864l-2.812 10.448h-1.138l2.813-10.448H305zM310.519 119.273V128h-1.321v-7.406h-.051l-2.088 1.363v-1.261l2.177-1.423h1.283zM315.612 126.807l-.064.464a7.446 7.446 0 01-.217 1.066 16.1 16.1 0 01-.311 1.035c-.105.318-.192.571-.26.759h-.903c.036-.176.088-.415.153-.716.065-.299.129-.632.192-1.002.062-.369.109-.745.14-1.129l.043-.477h1.227zM320.489 128.145c-.673-.003-1.248-.181-1.726-.533-.477-.352-.842-.865-1.095-1.538s-.379-1.485-.379-2.433c0-.946.126-1.755.379-2.425.256-.671.622-1.182 1.1-1.534.48-.352 1.054-.529 1.721-.529.668 0 1.24.178 1.718.533.477.352.842.864 1.095 1.534.256.668.383 1.475.383 2.421 0 .951-.126 1.764-.379 2.437-.253.671-.618 1.183-1.095 1.538-.477.353-1.051.529-1.722.529zm0-1.138c.591 0 1.053-.288 1.385-.865.336-.577.503-1.41.503-2.501 0-.725-.077-1.337-.23-1.837-.151-.503-.368-.884-.652-1.142a1.427 1.427 0 00-1.006-.392c-.588 0-1.049.29-1.385.869-.335.58-.504 1.414-.507 2.502 0 .727.076 1.342.226 1.845.154.5.371.879.652 1.138.281.255.619.383 1.014.383zM328.4 128.145c-.674-.003-1.249-.181-1.726-.533-.478-.352-.843-.865-1.096-1.538-.252-.673-.379-1.485-.379-2.433 0-.946.127-1.755.379-2.425.256-.671.623-1.182 1.1-1.534.48-.352 1.054-.529 1.722-.529.667 0 1.24.178 1.717.533.477.352.842.864 1.095 1.534.256.668.384 1.475.384 2.421 0 .951-.127 1.764-.38 2.437-.253.671-.618 1.183-1.095 1.538-.477.353-1.051.529-1.721.529zm0-1.138c.59 0 1.052-.288 1.384-.865.336-.577.503-1.41.503-2.501 0-.725-.076-1.337-.23-1.837-.15-.503-.368-.884-.652-1.142a1.426 1.426 0 00-1.005-.392c-.589 0-1.05.29-1.385.869-.336.58-.505 1.414-.508 2.502 0 .727.076 1.342.226 1.845.154.5.371.879.652 1.138.282.255.62.383 1.015.383zM336.31 128.145c-.674-.003-1.249-.181-1.726-.533-.477-.352-.843-.865-1.095-1.538-.253-.673-.38-1.485-.38-2.433 0-.946.127-1.755.38-2.425.255-.671.622-1.182 1.099-1.534.48-.352 1.054-.529 1.722-.529.667 0 1.24.178 1.717.533.477.352.842.864 1.095 1.534.256.668.384 1.475.384 2.421 0 .951-.127 1.764-.38 2.437-.252.671-.617 1.183-1.095 1.538-.477.353-1.051.529-1.721.529zm0-1.138c.591 0 1.052-.288 1.385-.865.335-.577.502-1.41.502-2.501 0-.725-.076-1.337-.23-1.837-.15-.503-.368-.884-.652-1.142a1.426 1.426 0 00-1.005-.392c-.588 0-1.05.29-1.385.869-.336.58-.505 1.414-.507 2.502 0 .727.075 1.342.225 1.845.154.5.371.879.652 1.138.282.255.62.383 1.015.383z" fill="#6C6E79"></path><rect x="279.5" y="114.5" width="67" height="19" rx="9.5" stroke="#C4C7CF"></rect><path d="M99 167a1 1 0 002 0v-2h2a1 1 0 000-2h-2v-2a1 1 0 00-2 0v2h-2a1 1 0 000 2h2v2z" fill="#A9ABB6"></path><path fill-rule="evenodd" clip-rule="evenodd" d="M100 172a8 8 0 100-16 8 8 0 000 16zm0-2a6 6 0 100-12 6 6 0 000 12z" fill="#A9ABB6"></path><rect x="118" y="154" width="90" height="20" rx="10" fill="#E0E1E9" fill-opacity=".8"></rect><rect x="293" y="154" width="54" height="20" rx="10" fill="#E0E1E9" fill-opacity=".8"></rect><path d="M99 207a1 1 0 002 0v-2h2a1 1 0 000-2h-2v-2a1 1 0 00-2 0v2h-2a1 1 0 000 2h2v2z" fill="#A9ABB6"></path><path fill-rule="evenodd" clip-rule="evenodd" d="M100 212a8 8 0 100-16 8 8 0 000 16zm0-2a6 6 0 100-12 6 6 0 000 12z" fill="#A9ABB6"></path><path d="M119.232 209v-10.182h1.233v5.051h.12l4.574-5.051h1.61l-4.275 4.594 4.275 5.588h-1.491l-3.54-4.733-1.273 1.432V209h-1.233zM130.847 209.159c-.735 0-1.37-.162-1.904-.487a3.28 3.28 0 01-1.228-1.372c-.285-.59-.427-1.276-.427-2.059 0-.782.142-1.471.427-2.068.289-.6.69-1.067 1.203-1.402.517-.338 1.121-.507 1.81-.507.398 0 .79.066 1.178.199.388.133.741.348 1.059.646.318.295.572.686.761 1.174.189.487.283 1.087.283 1.799v.498h-5.886v-1.015h4.693c0-.431-.086-.815-.258-1.153a1.95 1.95 0 00-.726-.8c-.312-.196-.68-.294-1.104-.294-.467 0-.872.116-1.213.348a2.298 2.298 0 00-.781.895 2.632 2.632 0 00-.273 1.183v.676c0 .577.099 1.066.298 1.467.202.398.482.701.84.91.358.205.774.308 1.248.308.309 0 .587-.043.836-.129.251-.09.469-.222.651-.398.182-.179.323-.401.422-.666l1.134.318c-.119.385-.32.723-.602 1.014a2.905 2.905 0 01-1.044.676c-.414.16-.88.239-1.397.239zM136.317 211.864a2.58 2.58 0 01-.532-.05 1.413 1.413 0 01-.323-.09l.298-1.034c.286.073.537.1.756.08a.909.909 0 00.582-.293c.172-.173.33-.453.472-.841l.219-.596-2.824-7.676h1.273l2.108 6.085h.079l2.108-6.085h1.273l-3.242 8.75a3.296 3.296 0 01-.541.979 2.036 2.036 0 01-.751.582c-.282.126-.6.189-.955.189zM145.085 209l-2.327-7.636h1.233l1.651 5.846h.079l1.631-5.846h1.253l1.61 5.826h.08l1.65-5.826h1.233L150.852 209h-1.154l-1.67-5.866h-.119L146.238 209h-1.153zM157.572 209.159c-.689 0-1.294-.164-1.815-.492a3.345 3.345 0 01-1.213-1.377c-.288-.59-.432-1.28-.432-2.068 0-.796.144-1.49.432-2.084a3.347 3.347 0 011.213-1.382c.521-.328 1.126-.492 1.815-.492.689 0 1.293.164 1.81.492.52.329.924.789 1.213 1.382.291.594.437 1.288.437 2.084 0 .788-.146 1.478-.437 2.068a3.303 3.303 0 01-1.213 1.377c-.517.328-1.121.492-1.81.492zm0-1.054c.524 0 .955-.134 1.293-.403.338-.268.588-.621.75-1.059.163-.437.244-.911.244-1.421 0-.511-.081-.986-.244-1.427a2.401 2.401 0 00-.75-1.069c-.338-.272-.769-.408-1.293-.408-.524 0-.954.136-1.293.408a2.401 2.401 0 00-.75 1.069 4.081 4.081 0 00-.244 1.427c0 .51.081.984.244 1.421.162.438.412.791.75 1.059.339.269.769.403 1.293.403zM162.823 209v-7.636h1.134v1.153h.079a1.84 1.84 0 01.756-.92 2.229 2.229 0 011.233-.353c.086 0 .194.002.323.005.129.004.227.009.294.015v1.193a3.667 3.667 0 00-.274-.044 2.605 2.605 0 00-.442-.035c-.372 0-.703.078-.995.234a1.711 1.711 0 00-.934 1.556V209h-1.174zM170.683 209.159c-.636 0-1.198-.161-1.685-.482-.487-.325-.868-.782-1.143-1.372-.276-.594-.413-1.295-.413-2.103 0-.802.137-1.498.413-2.088.275-.59.657-1.046 1.148-1.368.491-.321 1.057-.482 1.7-.482.497 0 .89.083 1.179.249.291.162.513.348.666.557.156.205.277.374.363.507h.099v-3.759h1.173V209h-1.133v-1.173h-.139a7.523 7.523 0 01-.368.527 2.182 2.182 0 01-.681.561c-.295.163-.688.244-1.179.244zm.16-1.054c.47 0 .868-.123 1.193-.368.324-.248.571-.591.74-1.029.169-.441.254-.949.254-1.526 0-.57-.083-1.069-.249-1.497-.165-.431-.411-.765-.735-1.004-.325-.242-.726-.363-1.203-.363-.498 0-.912.128-1.243.383-.329.252-.575.595-.741 1.029a4.08 4.08 0 00-.244 1.452c0 .543.083 1.037.249 1.481.169.441.417.792.746 1.054.331.259.742.388 1.233.388zM181.606 198.818V209h-1.173v-10.182h1.173zM183.755 209v-7.636h1.173V209h-1.173zm.597-8.909a.834.834 0 01-.592-.234.753.753 0 01-.244-.562.75.75 0 01.244-.561.834.834 0 01.592-.234c.228 0 .424.078.586.234a.741.741 0 01.249.561.744.744 0 01-.249.562.815.815 0 01-.586.234zM192.486 203.074l-1.054.298a1.954 1.954 0 00-.293-.512 1.43 1.43 0 00-.517-.418c-.219-.109-.499-.164-.84-.164-.468 0-.857.108-1.169.324-.308.212-.462.482-.462.81 0 .292.106.522.318.691.212.169.544.31.995.423l1.133.278c.683.166 1.192.419 1.526.761.335.338.503.774.503 1.307 0 .438-.126.829-.378 1.173-.249.345-.597.617-1.044.816-.448.199-.968.298-1.561.298-.779 0-1.424-.169-1.934-.507-.511-.338-.834-.832-.97-1.482l1.114-.278c.106.411.306.719.601.925.299.205.688.308 1.169.308.547 0 .981-.116 1.302-.348.325-.235.487-.517.487-.845a.886.886 0 00-.278-.666c-.186-.183-.471-.319-.855-.408l-1.273-.298c-.699-.166-1.213-.423-1.541-.771-.325-.351-.487-.79-.487-1.317 0-.431.121-.812.363-1.144a2.47 2.47 0 01.999-.78 3.508 3.508 0 011.442-.284c.755 0 1.349.166 1.78.497.434.332.742.769.924 1.313zM197.713 201.364v.994h-3.958v-.994h3.958zm-2.804-1.83h1.173v7.278c0 .332.048.581.144.746.1.163.226.272.378.328.156.053.32.08.492.08.129 0 .236-.007.318-.02l.199-.04.239 1.054a2.469 2.469 0 01-.875.139c-.332 0-.656-.071-.975-.213a1.944 1.944 0 01-.785-.652c-.206-.291-.308-.659-.308-1.103v-7.597z" fill="#191B23"></path><rect x="271" y="194" width="76" height="20" rx="10" fill="#CFF8E4"></rect><path d="M282.292 199.273V208h-1.321v-7.406h-.051l-2.088 1.363v-1.261l2.178-1.423h1.282zM288.864 208.145c-.673-.003-1.248-.18-1.726-.533-.477-.352-.842-.865-1.095-1.538s-.379-1.484-.379-2.433c0-.946.126-1.755.379-2.425.256-.671.622-1.182 1.1-1.534.48-.352 1.054-.529 1.721-.529.668 0 1.24.178 1.718.533.477.352.842.864 1.095 1.534.256.668.383 1.475.383 2.421 0 .951-.126 1.764-.379 2.437-.253.671-.618 1.183-1.095 1.538-.477.353-1.051.529-1.722.529zm0-1.138c.591 0 1.053-.288 1.385-.865.336-.577.503-1.41.503-2.501 0-.725-.077-1.337-.23-1.837-.151-.503-.368-.884-.652-1.142a1.427 1.427 0 00-1.006-.392c-.588 0-1.049.29-1.385.869-.335.58-.504 1.414-.507 2.502 0 .727.076 1.342.226 1.845.154.5.371.879.652 1.138.281.255.619.383 1.014.383zM296.775 208.145c-.674-.003-1.249-.18-1.726-.533-.478-.352-.843-.865-1.096-1.538-.252-.673-.379-1.484-.379-2.433 0-.946.127-1.755.379-2.425.256-.671.623-1.182 1.1-1.534.48-.352 1.054-.529 1.722-.529.667 0 1.24.178 1.717.533.477.352.842.864 1.095 1.534.256.668.384 1.475.384 2.421 0 .951-.127 1.764-.38 2.437-.253.671-.618 1.183-1.095 1.538-.477.353-1.051.529-1.721.529zm0-1.138c.59 0 1.052-.288 1.384-.865.336-.577.503-1.41.503-2.501 0-.725-.076-1.337-.23-1.837-.15-.503-.368-.884-.652-1.142a1.426 1.426 0 00-1.005-.392c-.589 0-1.05.29-1.385.869-.336.58-.505 1.414-.508 2.502 0 .727.076 1.342.226 1.845.154.5.371.879.652 1.138.282.255.62.383 1.015.383zM304.911 198.864l-2.813 10.449h-1.138l2.813-10.449h1.138zM310.429 199.273V208h-1.321v-7.406h-.051l-2.088 1.363v-1.261l2.177-1.423h1.283zM315.522 206.807l-.064.464a7.446 7.446 0 01-.217 1.066 16.1 16.1 0 01-.311 1.035c-.105.318-.192.571-.26.759h-.903l.153-.716c.065-.299.129-.632.192-1.002.062-.369.109-.745.14-1.129l.043-.477h1.227zM320.4 208.145c-.674-.003-1.249-.18-1.726-.533-.478-.352-.843-.865-1.096-1.538-.252-.673-.379-1.484-.379-2.433 0-.946.127-1.755.379-2.425.256-.671.623-1.182 1.1-1.534.48-.352 1.054-.529 1.722-.529.667 0 1.24.178 1.717.533.477.352.842.864 1.095 1.534.256.668.384 1.475.384 2.421 0 .951-.127 1.764-.38 2.437-.253.671-.618 1.183-1.095 1.538-.477.353-1.051.529-1.721.529zm0-1.138c.59 0 1.052-.288 1.384-.865.336-.577.503-1.41.503-2.501 0-.725-.076-1.337-.23-1.837-.15-.503-.368-.884-.652-1.142a1.426 1.426 0 00-1.005-.392c-.589 0-1.05.29-1.385.869-.336.58-.505 1.414-.508 2.502 0 .727.076 1.342.226 1.845.154.5.371.879.652 1.138.282.255.62.383 1.015.383zM328.31 208.145c-.674-.003-1.249-.18-1.726-.533-.477-.352-.843-.865-1.095-1.538-.253-.673-.38-1.484-.38-2.433 0-.946.127-1.755.38-2.425.255-.671.622-1.182 1.099-1.534.48-.352 1.054-.529 1.722-.529.667 0 1.24.178 1.717.533.477.352.842.864 1.095 1.534.256.668.384 1.475.384 2.421 0 .951-.127 1.764-.38 2.437-.252.671-.617 1.183-1.095 1.538-.477.353-1.051.529-1.721.529zm0-1.138c.591 0 1.052-.288 1.385-.865.335-.577.502-1.41.502-2.501 0-.725-.076-1.337-.23-1.837-.15-.503-.368-.884-.652-1.142a1.426 1.426 0 00-1.005-.392c-.588 0-1.05.29-1.385.869-.336.58-.505 1.414-.507 2.502 0 .727.075 1.342.225 1.845.154.5.371.879.652 1.138.282.255.62.383 1.015.383zM336.22 208.145c-.673-.003-1.249-.18-1.726-.533-.477-.352-.842-.865-1.095-1.538s-.379-1.484-.379-2.433c0-.946.126-1.755.379-2.425.255-.671.622-1.182 1.099-1.534.48-.352 1.054-.529 1.722-.529.667 0 1.24.178 1.717.533.477.352.842.864 1.095 1.534.256.668.384 1.475.384 2.421 0 .951-.127 1.764-.379 2.437-.253.671-.618 1.183-1.096 1.538-.477.353-1.051.529-1.721.529zm0-1.138c.591 0 1.052-.288 1.385-.865.335-.577.503-1.41.503-2.501 0-.725-.077-1.337-.231-1.837-.15-.503-.367-.884-.652-1.142a1.426 1.426 0 00-1.005-.392c-.588 0-1.05.29-1.385.869-.335.58-.504 1.414-.507 2.502 0 .727.075 1.342.226 1.845.153.5.37.879.652 1.138.281.255.619.383 1.014.383z" fill="#007C65"></path><rect x="77.5" y="50.5" width="278" height="178" rx="5.5" stroke="#E0E1E9"></rect></g><defs><filter id="filter0_d_29_93520" x="65" y="39" width="303" height="203" filterUnits="userSpaceOnUse" color-interpolation-filters="sRGB"><feFlood flood-opacity="0" result="BackgroundImageFix"></feFlood><feColorMatrix in="SourceAlpha" values="0 0 0 0 0 0 0 0 0 0 0 0 0 0 0 0 0 0 127 0" result="hardAlpha"></feColorMatrix><feOffset dy="1"></feOffset><feGaussianBlur stdDeviation="6"></feGaussianBlur><feColorMatrix values="0 0 0 0 0.0980392 0 0 0 0 0.105882 0 0 0 0 0.137255 0 0 0 0.15 0"></feColorMatrix><feBlend in2="BackgroundImageFix" result="effect1_dropShadow_29_93520"></feBlend><feBlend in="SourceGraphic" in2="effect1_dropShadow_29_93520" result="shape"></feBlend></filter></defs></svg>