<svg version="1.1" class="highcharts-root" style="font-family: &quot;Lucida Grande&quot;, &quot;Lucida Sans Unicode&quot;, Arial, Helvetica, sans-serif; font-size: 12px;" xmlns="http://www.w3.org/2000/svg" width="125" height="30" viewBox="0 0 125 30"><desc>Created with Highcharts 10.0.0</desc><defs><clipPath id="highcharts-v94bhhy-1-"><rect x="0" y="0" width="125" height="30" fill="none"></rect></clipPath><clipPath id="highcharts-v94bhhy-14-"><rect x="0" y="0" width="125" height="30" fill="none"></rect></clipPath><linearGradient x1="0" y1="0" x2="0" y2="1" id="highcharts-v94bhhy-15"><stop offset="0" stop-color="rgb(233, 241, 253)" stop-opacity="1"></stop><stop offset="1" stop-color="rgb(233,241,253)" stop-opacity="0.2"></stop></linearGradient><clipPath id="highcharts-v94bhhy-16-"><rect x="0" y="0" width="125" height="30" fill="none"></rect></clipPath></defs><rect fill="transparent" class="highcharts-background" x="0" y="0" width="125" height="30" rx="0" ry="0"></rect><rect fill="none" class="highcharts-plot-background" x="0" y="0" width="125" height="30"></rect><g class="highcharts-pane-group" data-z-index="0"></g><g class="highcharts-grid highcharts-yaxis-grid" data-z-index="1"><path fill="none" stroke-dasharray="none" data-z-index="1" class="highcharts-grid-line" d="M 0 30.5 L 125 30.5" opacity="1"></path><path fill="none" stroke-dasharray="none" data-z-index="1" class="highcharts-grid-line" d="M 0 0.5 L 125 0.5" opacity="1"></path></g><rect fill="none" class="highcharts-plot-border" data-z-index="1" x="0" y="0" width="125" height="30"></rect><g class="highcharts-axis highcharts-yaxis" data-z-index="2"><path fill="none" class="highcharts-axis-line" data-z-index="7" d="M 0 0 L 0 30"></path></g><g class="highcharts-series-group" data-z-index="3"><g class="highcharts-series highcharts-series-0 highcharts-area-series highcharts-color-0" data-z-index="0.1" opacity="1" transform="translate(0,0) scale(1 1)" clip-path="url(#highcharts-v94bhhy-14-)"><path fill="url(#highcharts-v94bhhy-15)" d="M 0 15.122276280336 L 11.452637801094 14.616792927883 L 22.905275602187 17.692914455942002 L 33.249593616078 8.012105166908 L 44.702231417172 9.138137635189 L 55.785429289198 2.771589816401999 L 67.238067090291 10.073267577656 L 78.321264962317 5.708591416954999 L 89.773902763411 5.0989873772999985 L 101.2265405645 6.545727375161 L 112.30973843653 6.614916089651999 L 123.76237623762 10.939267339965 L 123.76237623762 30 L 112.30973843653 30 L 101.2265405645 30 L 89.773902763411 30 L 78.321264962317 30 L 67.238067090291 30 L 55.785429289198 30 L 44.702231417172 30 L 33.249593616078 30 L 22.905275602187 30 L 11.452637801094 30 L 0 30 Z" class="highcharts-area" data-z-index="0"></path><path fill="none" d="M 0 15.122276280336 L 11.452637801094 14.616792927883 L 22.905275602187 17.692914455942002 L 33.249593616078 8.012105166908 L 44.702231417172 9.138137635189 L 55.785429289198 2.771589816401999 L 67.238067090291 10.073267577656 L 78.321264962317 5.708591416954999 L 89.773902763411 5.0989873772999985 L 101.2265405645 6.545727375161 L 112.30973843653 6.614916089651999 L 123.76237623762 10.939267339965" class="highcharts-graph" data-z-index="1" stroke="#3E74FE" stroke-width="2" stroke-linejoin="round" stroke-linecap="round"></path><path fill="none" d="M 0 15.122276280336 L 11.452637801094 14.616792927883 L 22.905275602187 17.692914455942002 L 33.249593616078 8.012105166908 L 44.702231417172 9.138137635189 L 55.785429289198 2.771589816401999 L 67.238067090291 10.073267577656 L 78.321264962317 5.708591416954999 L 89.773902763411 5.0989873772999985 L 101.2265405645 6.545727375161 L 112.30973843653 6.614916089651999 L 123.76237623762 10.939267339965" visibility="visible" data-z-index="2" class="highcharts-tracker-line" stroke-linecap="round" stroke-linejoin="round" stroke="rgba(192,192,192,0.0001)" stroke-width="22"></path></g><g class="highcharts-markers highcharts-series-0 highcharts-area-series highcharts-color-0 highcharts-tracker" data-z-index="0.1" opacity="1" transform="translate(0,0) scale(1 1)" clip-path="none"></g></g><text x="63" text-anchor="middle" class="highcharts-title" data-z-index="4" style="color: rgb(51, 51, 51); font-size: 18px; display: none; fill: rgb(51, 51, 51);" y="24">Chart title</text><text x="63" text-anchor="middle" class="highcharts-subtitle" data-z-index="4" style="color: rgb(102, 102, 102); fill: rgb(102, 102, 102);" y="24"></text><text x="10" text-anchor="start" class="highcharts-caption" data-z-index="4" style="color: rgb(102, 102, 102); fill: rgb(102, 102, 102);" y="27"></text><g class="highcharts-axis-labels highcharts-yaxis-labels" data-z-index="7"></g><g class="highcharts-control-points" data-z-index="99" clip-path="url(#highcharts-v94bhhy-16-)"></g></svg>