<svg width="100%" height="100%" viewBox="0 0 24 24" xmlns="http://www.w3.org/2000/svg"><path d="M15 17a2 2 0 1 0 0-4 2 2 0 0 0 0 4zm5.903-.224a.68.68 0 0 0-.011.018l.01-.018zm-1.771-.663l.077-.568c.027-.197.041-.379.041-.545 0-.166-.014-.348-.042-.56l-.073-.566.448-.351 1.03-.807-.836-1.447-1.747.703-.454-.353a4.142 4.142 0 0 0-.952-.557l-.525-.22-.08-.563L15.842 9h-1.68l-.26 1.847-.517.222c-.353.151-.677.34-.96.56l-.454.353-.533-.214-1.214-.489-.837 1.446 1.482 1.162-.077.568c-.027.197-.041.379-.041.545 0 .166.014.348.042.56l.073.566-.448.351-1.03.807.836 1.447 1.747-.703.454.353c.294.229.608.413.952.557l.525.22.08.563.178 1.279h1.68l.26-1.847.517-.222c.353-.151.677-.34.96-.56l.454-.353.533.214 1.214.489.837-1.446-1.482-1.162zM9.106 16.8l.01.018a.618.618 0 0 0-.01-.018zm11.788-3.598l-.01-.018a.618.618 0 0 0 .01.018zM4 1h15v4h-2V3h-3v2h-2V3H9v4H7V3H4v12H2V1h2zm17.25 14c0 .076-.002.152-.005.229l1.08.848c.501.423.638 1.152.3 1.714l-1.408 2.433a1.36 1.36 0 0 1-1.66.564l-1.238-.498c-.128.08-.26.157-.393.228l-.191 1.356A1.363 1.363 0 0 1 16.4 23h-2.8c-.651 0-1.214-.473-1.34-1.15l-.186-1.32a6.105 6.105 0 0 1-.394-.23l-1.259.506c-.611.23-1.3-.007-1.647-.585l-1.391-2.407c-.346-.575-.209-1.304.32-1.751l1.052-.825a5.278 5.278 0 0 1 0-.467l-1.08-.848a1.349 1.349 0 0 1-.3-1.714l1.408-2.433a1.36 1.36 0 0 1 1.66-.564l1.238.498c.128-.08.26-.157.393-.228l.191-1.356A1.363 1.363 0 0 1 13.6 7h2.8c.651 0 1.214.473 1.34 1.15l.186 1.32c.134.071.266.148.394.23l1.259-.506c.611-.23 1.3.007 1.647.585l1.391 2.407c.346.575.209 1.304-.32 1.751l-1.052.825c.003.08.005.16.005.238z" fill="#ffffff" fill-rule="evenodd"></path></svg>